<svg width="75" height="26" viewBox="0 0 75 26" fill="none" xmlns="http://www.w3.org/2000/svg">
<path fill-rule="evenodd" clip-rule="evenodd" d="M22.4356 10.65C24.3644 4.45 29.6178 0 35.7867 0C41.4844 0 46.4 3.8 48.64 9.26C49.0667 9.2 49.4933 9.17 49.9378 9.17C54.7111 9.17 58.7556 12.69 60.1422 17.54C61.6622 16.52 63.5111 15.79 65.5022 15.92C74.5333 16.44 74.9067 25.04 74.9067 25.04L0 24.59C0 24.59 1.18222 15.9 8.26667 15.91C9.95556 15.98 11.5378 16.45 12.8444 17.37C14.2133 13.41 17.6356 10.61 21.6356 10.61C21.9022 10.61 22.1689 10.62 22.4267 10.65H22.4356Z" fill="white"/>
</svg>
