<svg width="293" height="137" viewBox="0 0 293 137" fill="none" xmlns="http://www.w3.org/2000/svg">
<path d="M75.6447 -275.008C124.542 -350.893 193.979 -351.826 193.979 -351.826L227.298 -356.542L266.33 -348.334C266.33 -348.334 533.528 -271.102 482.6 -157.277C431.672 -43.4518 390.322 121.822 313.238 134.373C236.155 146.924 205.804 99.9924 190.525 67.1751C175.247 34.3579 143.935 -2.38508 103.906 11.362C63.8775 25.1089 8.47968 11.6139 0.582157 -33.2021C-7.31537 -78.0182 71.4559 -93.7803 51.4011 -150.415C31.5244 -206.547 48.7404 -233.261 74.9382 -273.911L75.6447 -275.008Z" fill="url(#paint0_linear_40001462_413)" fill-opacity="0.3"/>
<defs>
<linearGradient id="paint0_linear_40001462_413" x1="174.546" y1="137.099" x2="159.748" y2="-485.551" gradientUnits="userSpaceOnUse">
<stop stop-color="#F2F5F7"/>
<stop offset="1" stop-color="#F9FAFB"/>
</linearGradient>
</defs>
</svg>
